<?xml version="1.0" encoding="utf-8"?>
<!-- Generator: Adobe Illustrator 15.0.0, SVG Export Plug-In . SVG Version: 6.00 Build 0)  -->
<!DOCTYPE svg PUBLIC "-//W3C//DTD SVG 1.1//EN" "http://www.w3.org/Graphics/SVG/1.1/DTD/svg11.dtd">
<svg version="1.1"
	 id="svg2" sodipodi:docname="nmhc-logo.svg" inkscape:version="0.91 r13725" xmlns:dc="http://purl.org/dc/elements/1.1/" xmlns:cc="http://creativecommons.org/ns#" xmlns:rdf="http://www.w3.org/1999/02/22-rdf-syntax-ns#" xmlns:svg="http://www.w3.org/2000/svg" xmlns:sodipodi="http://sodipodi.sourceforge.net/DTD/sodipodi-0.dtd" xmlns:inkscape="http://www.inkscape.org/namespaces/inkscape"
	 xmlns="http://www.w3.org/2000/svg" xmlns:xlink="http://www.w3.org/1999/xlink" x="0px" y="0px" width="595.275px"
	 height="841.89px" viewBox="0 0 595.275 841.89" enable-background="new 0 0 595.275 841.89" xml:space="preserve">
<sodipodi:namedview  id="base" inkscape:window-y="-8" inkscape:window-x="-8" inkscape:window-height="1027" inkscape:window-width="1920" inkscape:current-layer="layer1" inkscape:document-units="px" inkscape:pageshadow="2" inkscape:pageopacity="0.0" showguides="false" showgrid="false" inkscape:cy="642.56115" inkscape:cx="-443.94623" inkscape:zoom="0.49497475" borderopacity="1.0" bordercolor="#666666" pagecolor="#ffffff" inkscape:window-maximized="1">
	</sodipodi:namedview>
<g id="layer1" inkscape:label="Layer 1" inkscape:groupmode="layer">
	<g id="g4232" transform="matrix(1.7291987,0,0,1.7291987,-297.24653,-313.37307)">
		
			<text transform="matrix(0.5783 0 0 0.5783 220.2804 242.1594)" fill="#AA0000" font-family="'Rockwell-Bold'" font-size="110.6687" letter-spacing="18">NMHC</text>
		
			<text transform="matrix(0.5783 0 0 0.5783 220.2804 242.1594)" fill="#FFFFFF" stroke="#FFFFFF" stroke-width="1.5" font-family="'Rockwell-Bold'" font-size="110.6687" letter-spacing="18">NMHC</text>
		<a id="a4173" transform="translate(-4.34716,10)">
			
				<path id="path4169" sodipodi:nodetypes="csccssscccssccssssssssssssssssccssscssssssssssssscccsssccsssssccccccccccsccccscccsccsc" inkscape:connector-curvature="0" fill="#FFFFFF" stroke="#FFFFFF" stroke-width="1.1" d="
				M344.135,490.302c-0.828-6.487,0.189-11.457-0.218-11.707c-0.953-0.59-4.817,5.409-5.612,6.66
				c-5.362,4.59-10.66,6.631-10.66,6.631c-0.389-1.552,0.182-3.298,2.216-6.767c1.507-2.572,3.77-7.014,5.029-9.872
				c1.259-2.858,3.308-6.391,4.555-7.85c1.021-1.196,4.193-4.463,4.193-4.463l-0.714-33.328
				c-10.78-2.471-20.264-10.036-25.297-19.813c-2.377-4.942-2.425-12.639-0.109-17.424c1.969-4.068,9.389-11.209,18.474-17.78
				l6.528-4.721v-38.41h-3.112c-4.24,0-8.089,1.425-11.26,4.168c-2.489,2.154-3.143,2.306-10.506,2.445
				c-11.035,0.208-11.757,0.112-13-1.734c-1.696-2.517-4.092-2.109-4.673,0.795c-0.269,1.343-0.867,2.675-1.329,2.961
				c-0.517,0.32-0.642,0.002-0.325-0.825c0.385-1.004,0.347-2.919-0.991-2.927c-2.456-0.015-5.715,0.707-5.715,0.02
				c0-0.311,2.727-1.403,6.061-2.425c6.222-1.909,6.73-2.293,5.136-3.887c-1.507-1.507,0.614-5.366,4.471-8.136
				c1.886-1.354,4.454-3.943,5.708-5.752c0.76-1.097,1.098-2.671,2.28-3.29c2.96-1.55,6.683,0,10.024,0
				c8.429,0,10.528,0.257,13.192,1.616c1.743,0.889,3.936,1.473,4.176,1.473l-0.135-13.533l-3.435-0.924
				c-5.098-1.371-7.741-2.917-13.339-7.801c-7.163-6.25-10.703-13.637-10.703-22.332v-6.178h4.761c4.495,0,4.792,0.122,5.307,2.175
				c0.977,3.894,11.474,14.796,14.246,14.796c1.351,0,0.669-6.698,0.354-6.698c-2.113,0-4.465-3.751-4.465-7.351
				c0-3.965,0.245-4.603,2.347-6.1c2.051-1.46,3.539-1.671,11.795-1.671c12.331,0,14.142,0.884,14.142,6.902
				c0,3.36-0.376,4.483-2.02,6.028c-1.551,1.457-2.02,2.71-2.02,5.394c0,1.923,0.196,3.495,0.436,3.495s1.828-0.71,3.529-1.577
				c2.047-1.044,4.675-3.776,7.775-8.081l4.682-6.504h5.123h5.123v3.96c0,5.7-5.015,16.223-10.252,21.511
				c-4.199,4.24-11.706,8.706-16.249,9.667l-2.662,0.563l0.046,15.051l9.722,0.957c13.614,1.34,18.3,12.822,20.865,19.936
				c2.11,5.853,1.896,11.004-0.846,20.308c-1.411,4.787-2.559,6.799-6.142,10.758c-3.673,4.058-6.004,5.67-13.991,9.674
				l-9.584,4.804v32.315c6.929,1.456,12.004,2.303,17.054,6.964c2.729,2.422,5.631,9.155,6.294,14.604
				c0.956,10.406-9.573,18.776-16.135,23.541c-3.817,2.796-6.644,6.163-9.637,9.743v19.04c-0.417,7.547-4.445,18.432-4.445,18.432
				L344.135,490.302z M355.017,455.215c4.636-1.983,11.745-10.378,11.745-14.79c0-2.679-5.394-8.388-10.579-9.222L355.017,455.215z
				 M342.376,387.65c-4.915,2.707-9.741,7.208-9.042,11.926c0.286,1.871,1.008,4.369,1.604,5.553
				c1.041,2.066,5.717,6.307,6.975,6.325L342.376,387.65z M360.783,364.512c7.714-2.923,17.585-20.42,12.916-26.82
				c-1.682-2.306-14.297-4.843-16.736-4.843l-0.055,33.088C357.038,365.936,359.494,365,360.783,364.512z"/>
		</a>
		
			<path id="path4171" sodipodi:nodetypes="cssssssssccszzscssccsccccssssc" inkscape:connector-curvature="0" fill="#FFFFFF" stroke="#FFFFFF" stroke-width="1.6" d="
			M313.749,601.081c10.546-11.026,19.552-22.091,19.552-22.715c0-1.347-78.266-89.748-79.449-89.748
			c-0.517,0-2.139-0.826-3.081-1.485c-3.015-2.112-2.539-5.209,3.474-10.309c5.965-5.058,8.055-9.102,11.353-4.404
			c0.887,1.264,0.893,1.75,1.412,3.349c1.109,3.42,75.955,90.876,76.902,89.858c0.328-0.354,18.664-19.733,40.748-43.068
			c0,0,39.593-40.935,40.152-42.426c0.583-1.525,1.11-2.814,2.003-3.738c1.272-1.308,4.496-0.225,8.625,3.828
			c4.251,4.173,4.819,6.263,3.573,7.395c-1.246,1.131-1.734,1.488-3.238,2.069s-8.991,9.303-40.09,43.386l-40.563,44.455
			l20.84,24.102c23.993,27.747,27.649,31.376,34.86,31.149c6.172-0.194-5.605-15.36,5.566-20.324
			c8.803-3.679,14.581,9.167,13.73,21.586c-1.242,12.928-12.759,16.949-19.054,16.919c-12.914-0.063-24.923-13.878-39.352-30.853
			c-14.535-16.798-26.516-30.434-26.623-30.305c-0.107,0.13-12.705,13.112-26.997,29.732 M318.09,619.533
			c-18.921,22.001-24.109,30.005-32.817,31.25c-20.695,2.957-21.295-8.105-23.083-13.456c-1.922-5.754,0.681-27.534,11.689-23.786
			c11.797,4.018-0.318,18.16,7.745,19.339c2.034,0.297,9.467-8.11,32.125-31.8"/>
		<path id="path4178" inkscape:connector-curvature="0" fill="none" stroke="#FFFFFF" d="M338.065,325.992l14.571,0.714"/>
		<path id="path4180" sodipodi:nodetypes="cc" inkscape:connector-curvature="0" fill="none" stroke="#FFFFFF" d="M337.78,341.563
			l14.714,1.143"/>
		<path id="path4182" inkscape:connector-curvature="0" fill="none" stroke="#FFFFFF" d="M337.494,421.563l15.285,4.143"/>
		<path id="path4184" inkscape:connector-curvature="0" fill="none" stroke="#FFFFFF" d="M338.208,439.706l13.858,1.429"/>
		<path id="path4186" inkscape:connector-curvature="0" fill="none" stroke="#FFFFFF" d="M338.279,379.992l-0.357,18.072"/>
		<path id="path4188" sodipodi:nodetypes="cc" inkscape:connector-curvature="0" fill="none" stroke="#FFFFFF" d="M352.568,375.206
			l0.212,18.571"/>
		<path id="path4190" sodipodi:nodetypes="cc" inkscape:connector-curvature="0" fill="none" stroke="#FFFFFF" d="M339.078,473.164
			l0.303,15.557"/>
		<path id="path4192" inkscape:connector-curvature="0" fill="none" stroke="#FFFFFF" d="M350.492,464.881l-0.303,15.859"/>
		<path id="path4194" inkscape:connector-curvature="0" fill="none" stroke="#FFFFFF" d="M335.138,292.044l20.405,0.202"/>
		<path id="path4196" inkscape:connector-curvature="0" fill="none" stroke="#FFFFFF" d="M338.27,312.449l14.344-0.808"/>
		<path id="path4198" sodipodi:nodetypes="cc" inkscape:connector-curvature="0" fill="none" stroke="#FFFFFF" d="M335.584,283.254
			c10.325-0.997,13.416-0.011,20.024-0.333"/>
		
			<path id="path4200" sodipodi:nodetypes="cc" inkscape:connector-curvature="0" fill="none" stroke="#FFFFFF" stroke-width="1.4" d="
			M343.294,565.42l11.857,12.286"/>
		
			<path id="path4202" sodipodi:nodetypes="cc" inkscape:connector-curvature="0" fill="none" stroke="#FFFFFF" stroke-width="1.4" d="
			M333.3,578.366l11.787,11.436"/>
	</g>
</g>
</svg>
